<?xml version="1.0" encoding="utf-8"?>
<!-- Generator: Adobe Illustrator 25.0.1, SVG Export Plug-In . SVG Version: 6.00 Build 0)  -->
<svg version="1.1" id="Layer_1" xmlns="http://www.w3.org/2000/svg" xmlns:xlink="http://www.w3.org/1999/xlink" x="0px" y="0px"
	 viewBox="0 0 118.8 37.3" style="enable-background:new 0 0 118.8 37.3;" xml:space="preserve">
<style type="text/css">
	.st0{fill-rule:evenodd;clip-rule:evenodd;fill:#4B366C;}
	.st1{display:none;opacity:0.3;fill-rule:evenodd;clip-rule:evenodd;fill:#4B366C;enable-background:new    ;}
	.st2{fill:#4B366C;}
</style>
<path class="st0" d="M81,18.8c-0.7-1.6-1.6-3-2.8-4.2c-1.2-1.2-2.5-2.2-4.1-2.8c-1.6-0.7-3.3-1-5-1c-1.8,0-3.5,0.3-5,1
	c-1.6,0.7-2.9,1.6-4.1,2.8c-1.2,1.2-2.1,2.6-2.8,4.2s-1,3.3-1,5.2c0,1.8,0.3,3.6,1,5.2s1.6,3,2.8,4.2s2.5,2.2,4.1,2.9s3.3,1,5,1
	c1.8,0,3.5-0.3,5-1c1.6-0.7,2.9-1.6,4.1-2.9c1.2-1.2,2.1-2.6,2.8-4.2c0.7-1.6,1-3.3,1-5.2C82,22.2,81.6,20.4,81,18.8z M76.3,27.2
	c-0.4,1-1,1.9-1.7,2.6s-1.6,1.3-2.5,1.7c-1,0.4-2,0.6-3.1,0.6s-2.1-0.2-3.1-0.6s-1.8-1-2.5-1.7c-0.7-0.7-1.3-1.6-1.7-2.6
	s-0.6-2-0.6-3.2c0-1.1,0.2-2.2,0.6-3.2c0.4-1,1-1.9,1.7-2.6c0.7-0.7,1.6-1.3,2.5-1.7c1-0.4,2-0.6,3.1-0.6s2.1,0.2,3.1,0.6
	s1.8,1,2.5,1.7s1.3,1.6,1.7,2.6c0.4,1,0.6,2,0.6,3.2C76.9,25.1,76.7,26.2,76.3,27.2z"/>
<path class="st1" d="M109,18.8c-0.7-1.6-1.6-3-2.8-4.2c-1.2-1.2-2.5-2.2-4.1-2.8c-1.6-0.7-3.3-1-5-1c-1.8,0-3.5,0.3-5,1
	c-1.6,0.7-2.9,1.6-4.1,2.8s-2.1,2.6-2.8,4.2c-0.7,1.6-1,3.3-1,5.2v24c2.7,0,5-5.4,5-12c0-0.5,0-1,0-1.5c0.9,0.7,1.9,1.3,3,1.8
	c1.6,0.7,3.3,1,5,1c1.8,0,3.5-0.3,5-1c1.6-0.7,2.9-1.6,4.1-2.8s2.1-2.6,2.8-4.2c0.7-1.6,1-3.3,1-5.2C110,22.1,109.7,20.4,109,18.8z
	 M104.3,27.2c-0.4,1-1,1.9-1.7,2.6s-1.6,1.3-2.5,1.7c-1,0.4-2,0.6-3.1,0.6s-2.1-0.2-3.1-0.6s-1.8-1-2.5-1.7s-1.3-1.6-1.7-2.6
	c-0.4-1-0.6-2-0.6-3.2c0-1.1,0.2-2.2,0.6-3.2s1-1.9,1.7-2.6s1.6-1.3,2.5-1.7c1-0.4,2-0.6,3.1-0.6s2.1,0.2,3.1,0.6s1.8,1,2.5,1.7
	s1.3,1.6,1.7,2.6c0.4,1,0.6,2,0.6,3.2C105,25.1,104.7,26.2,104.3,27.2z"/>
<path class="st0" d="M24.9,18.8c-0.7-1.6-1.6-3-2.8-4.2s-2.5-2.2-4.1-2.8c-1.6-0.7-3.3-1-5-1c-1.8,0-3.5,0.3-5,1
	c-1.1,0.5-2.1,1.1-3,1.8c0-0.5,0-1,0-1.5C5,5.4,2.7,0,0,0v24c0,1.8,0.3,3.6,1,5.2s1.6,3,2.8,4.2s2.5,2.2,4.1,2.9s3.3,1,5,1
	c1.8,0,3.5-0.3,5-1c1.6-0.7,2.9-1.6,4.1-2.9c1.2-1.2,2.1-2.6,2.8-4.2c0.7-1.6,1-3.3,1-5.2C25.9,22.2,25.5,20.4,24.9,18.8z
	 M20.2,27.2c-0.4,1-1,1.9-1.7,2.6s-1.6,1.3-2.5,1.7c-1,0.4-2,0.6-3.1,0.6s-2.1-0.2-3.1-0.6s-1.8-1-2.5-1.7S6,28.2,5.6,27.2
	c-0.4-1-0.6-2-0.6-3.2c0-1.1,0.2-2.2,0.6-3.2s1-1.9,1.7-2.6s1.6-1.3,2.5-1.7c1-0.4,2-0.6,3.1-0.6s2.1,0.2,3.1,0.6s1.8,1,2.5,1.7
	s1.3,1.6,1.7,2.6c0.4,1,0.6,2,0.6,3.2C20.8,25.1,20.6,26.2,20.2,27.2z"/>
<g>
	<path class="st0" d="M87.4,37.3H86c-1,0-1.8-0.8-1.8-1.8V20.7h5v14.9C89.2,36.5,88.4,37.3,87.4,37.3z"/>
	<path class="st0" d="M102.2,37.3h-1.4c-1,0-1.8-0.8-1.8-1.8V20.7h5v14.9C104.1,36.5,103.2,37.3,102.2,37.3z"/>
	<path class="st0" d="M118.8,37.3L118.8,37.3c-4.9,0-5-8.7-5-16.7c1.3,0,5,0,5,0V37.3z"/>
	<path class="st0" d="M94.2,10.7c-5.5,0-10,4.5-10,10h5c0-2.7,2.2-4.9,4.9-4.9S99,18,99,20.7h5C104.2,15.1,99.7,10.7,94.2,10.7z"/>
	<path class="st0" d="M109,10.7c-5.5,0-10,4.5-10,10h5c0-2.7,2.2-4.9,4.9-4.9c2.7,0,4.9,2.2,4.9,4.9h5
		C118.9,15.1,114.5,10.7,109,10.7z"/>
</g>
<g>
	<path class="st0" d="M47.3,17.7l-3.9-2.6c-0.4-0.3-0.5-0.8-0.2-1.2L47,8.2c0.3-0.4,0.8-0.5,1.2-0.2l3.9,2.6
		c0.4,0.3,0.5,0.8,0.2,1.2l-3.8,5.6C48.2,17.9,47.7,18,47.3,17.7z"/>
	<g>
		<path class="st2" d="M47.7,14.3c-0.2,0-0.4,0-0.6-0.1c-0.8-0.3-1.1-1.2-0.7-2c0.1-0.3,3.4-7.2,9.7-7.9c0.8-0.1,1.6,0.5,1.6,1.3
			c0.1,0.8-0.5,1.6-1.3,1.6c-4.7,0.5-7.3,6.1-7.3,6.2C48.8,14,48.3,14.3,47.7,14.3z"/>
	</g>
	<path class="st0" d="M55.7,3.7L55.7,3.7c-0.4,0.1-0.8-0.1-0.9-0.5L54.5,2c-0.1-0.4,0.1-0.8,0.5-0.9l0,0c0.4-0.1,0.8,0.1,0.9,0.5
		l0.3,1.1C56.3,3.1,56.1,3.6,55.7,3.7z"/>
	<path class="st0" d="M57.8,4.1L57.8,4.1c-0.3-0.2-0.4-0.7-0.2-1l0.7-1c0.2-0.3,0.7-0.4,1-0.2l0,0c0.3,0.2,0.4,0.7,0.2,1l-0.7,1
		C58.6,4.2,58.1,4.3,57.8,4.1z"/>
	<path class="st0" d="M58.4,5.8L58.4,5.8C58.4,5.4,58.6,5,59,5l1.2-0.1c0.4,0,0.8,0.2,0.8,0.6l0,0c0,0.4-0.2,0.8-0.6,0.8l-1.2,0.1
		C58.8,6.5,58.5,6.2,58.4,5.8z"/>
	<path class="st0" d="M57.6,7.6L57.6,7.6c0.3-0.3,0.7-0.3,1,0l0.8,0.8c0.3,0.3,0.3,0.7,0,1l0,0c-0.3,0.3-0.7,0.3-1,0l-0.8-0.8
		C57.3,8.3,57.3,7.8,57.6,7.6z"/>
	<path class="st0" d="M52.9,18.8c-0.7-1.6-1.6-3-2.8-4.2s-2.5-2.2-4.1-2.8c-1.6-0.7-3.3-1-5-1c-1.8,0-3.5,0.3-5,1
		c-1.6,0.7-2.9,1.6-4.1,2.8c-1.2,1.2-2.1,2.6-2.8,4.2c-0.7,1.6-1,3.3-1,5.2c0,1.8,0.3,3.6,1,5.2s1.6,3,2.8,4.2s2.5,2.2,4.1,2.9
		c1.6,0.7,3.3,1,5,1c1.8,0,3.5-0.3,5-1c1.6-0.7,2.9-1.6,4.1-2.9c1.2-1.2,2.1-2.6,2.8-4.2s1-3.3,1-5.2C53.9,22.1,53.6,20.4,52.9,18.8
		z M48.3,27.2c-0.4,1-1,1.9-1.7,2.6s-1.6,1.3-2.5,1.7c-1,0.4-2,0.6-3.1,0.6s-2.1-0.2-3.1-0.6s-1.8-1-2.5-1.7s-1.3-1.6-1.7-2.6
		s-0.6-2-0.6-3.2c0-1.1,0.2-2.2,0.6-3.2c0.4-1,1-1.9,1.7-2.6s1.6-1.3,2.5-1.7c1-0.4,2-0.6,3.1-0.6s2.1,0.2,3.1,0.6s1.8,1,2.5,1.7
		s1.3,1.6,1.7,2.6s0.6,2,0.6,3.2C48.9,25.1,48.7,26.2,48.3,27.2z"/>
</g>
</svg>
