<?xml version="1.0" encoding="UTF-8"?>
<svg width="479px" height="332px" viewBox="0 0 479 332" version="1.1" xmlns="http://www.w3.org/2000/svg" xmlns:xlink="http://www.w3.org/1999/xlink">
    <title>Group 5</title>
    <defs>
        <filter x="-28.8%" y="-28.3%" width="157.7%" height="156.6%" filterUnits="objectBoundingBox" id="filter-1">
            <feGaussianBlur stdDeviation="20" in="SourceGraphic"></feGaussianBlur>
        </filter>
        <filter x="-50.0%" y="-50.0%" width="200.0%" height="200.0%" filterUnits="objectBoundingBox" id="filter-2">
            <feGaussianBlur stdDeviation="2" in="SourceGraphic"></feGaussianBlur>
        </filter>
    </defs>
    <g id="Home" stroke="none" stroke-width="1" fill="none" fill-rule="evenodd">
        <g transform="translate(-1424.000000, -786.000000)" id="Group-5">
            <g transform="translate(1424.000000, 786.000000)">
                <path d="M107,-3 C109.982435,-3 112.4,2.97343844 112.4,10.3421743 C112.4,10.9166917 112.385579,11.4826385 112.356737,12.0377292 L112.359,11.962 L112.4,11.9622708 L112.4,27 C109.417565,27 107,21.0265616 107,13.6578257 C107,13.0833083 107.014421,12.5173615 107.043263,11.9622708 L107.04,12.037 L107,12.0377292 Z" id="Fill-5-Copy-2" fill="#E2A834" transform="translate(109.700000, 12.000000) rotate(51.000000) translate(-109.700000, -12.000000) "></path>
                <path d="M21.0953373,124.314385 C20.6699661,125.357365 20.084397,126.26798 19.336546,127.04542 C18.588695,127.823401 17.713988,128.433359 16.7111227,128.874755 C15.7082574,129.317231 14.646262,129.537659 13.5253972,129.537659 C12.403751,129.537659 11.3409742,129.317231 10.3388903,128.874755 C9.33602501,128.433359 8.46131805,127.823401 7.71346705,127.04542 C6.96587653,126.26798 6.37119041,125.357365 5.92914822,124.314385 C5.48762699,123.271946 5.26699661,122.166565 5.26699661,120.999865 C5.26699661,119.833434 5.48762699,118.728594 5.92914822,117.685614 C6.37119041,116.643175 6.96587653,115.732559 7.71346705,114.954579 C8.46131805,114.177409 9.33602501,113.567451 10.3388903,113.124975 C11.3409742,112.683309 12.403751,112.462341 13.5253972,112.462341 C14.646262,112.462341 15.7082574,112.683309 16.7111227,113.124975 C17.713988,113.567451 18.588695,114.177409 19.336546,114.954579 C20.084397,115.732559 20.6699661,116.643175 21.0953373,117.685614 C21.5201875,118.728594 21.7327429,119.833434 21.7327429,120.999865 C21.7327429,122.166565 21.5201875,123.271946 21.0953373,124.314385 M23.0622558,111.083316 C21.8351133,109.810724 20.40323,108.812316 18.7671269,108.087282 C17.1305027,107.363058 15.3743162,107 13.4998698,107 C11.6246418,107 9.86923678,107.363058 8.23287314,108.087282 C6.59650951,108.812316 5.16488669,109.810724 3.93748372,111.083316 C2.71034123,112.355909 1.74654858,113.841095 1.04845012,115.537794 C0.349049232,117.234764 0,119.055994 0,120.999865 C0,122.944545 0.349049232,124.764965 1.04845012,126.461935 C1.74654858,128.158905 2.71034123,129.643821 3.93748372,130.916413 C5.16488669,132.189005 6.59650951,133.188764 8.23287314,133.912718 C9.86923678,134.637482 11.6246418,135 13.4998698,135 C15.3743162,135 17.1305027,134.637482 18.7671269,133.912718 C20.40323,133.188764 21.8351133,132.189005 23.0622558,130.916413 C24.2896588,129.643821 25.2524095,128.158905 25.9515499,126.461935 C26.6496483,124.764965 27,122.944545 27,120.999865 C27,119.055994 26.6496483,117.234764 25.9515499,115.537794 C25.2524095,113.841095 24.2896588,112.355909 23.0622558,111.083316" id="Fill-3-Copy-3" fill="#50BAA8"></path>
                <path d="M373.512228,191.094633 C370.235295,198.991481 365.724243,205.886139 359.963021,211.772472 C354.201798,217.662894 347.463315,222.28115 339.737538,225.623146 C332.01176,228.973324 323.830463,230.642278 315.195653,230.642278 C306.554822,230.642278 298.367505,228.973324 290.647748,225.623146 C282.92197,222.28115 276.183487,217.662894 270.422265,211.772472 C264.663049,205.886139 260.081763,198.991481 256.676401,191.094633 C253.275052,183.201875 251.575381,174.832566 251.575381,165.998977 C251.575381,157.167434 253.275052,148.802215 256.676401,140.905367 C260.081763,133.012609 264.663049,126.117951 270.422265,120.227528 C276.183487,114.343241 282.92197,109.724986 290.647748,106.374808 C298.367505,103.030766 306.554822,101.357722 315.195653,101.357722 C323.830463,101.357722 332.01176,103.030766 339.737538,106.374808 C347.463315,109.724986 354.201798,114.343241 359.963021,120.227528 C365.724243,126.117951 370.235295,133.012609 373.512228,140.905367 C376.785149,148.802215 378.422612,157.167434 378.422612,165.998977 C378.422612,174.832566 376.785149,183.201875 373.512228,191.094633 M388.664785,90.9165388 C379.211243,81.2811978 368.180439,73.7218218 355.576385,68.232275 C342.968317,62.748864 329.439177,60 314.998997,60 C300.552796,60 287.029676,62.748864 274.423615,68.232275 C261.817555,73.7218218 250.788757,81.2811978 241.333208,90.9165388 C231.879666,100.55188 224.454893,111.796861 219.076949,124.6433 C213.688972,137.491785 211,151.281101 211,165.998977 C211,180.722989 213.688972,194.50617 219.076949,207.354654 C224.454893,220.203139 231.879666,231.446075 241.333208,241.081416 C250.788757,250.716757 261.817555,258.286359 274.423615,263.767725 C287.029676,269.255227 300.552796,272 314.998997,272 C329.439177,272 342.968317,269.255227 355.576385,263.767725 C368.180439,258.286359 379.211243,250.716757 388.664785,241.081416 C398.120334,231.446075 405.53708,220.203139 410.923051,207.354654 C416.300995,194.50617 419,180.722989 419,165.998977 C419,151.281101 416.300995,137.491785 410.923051,124.6433 C405.53708,111.796861 398.120334,100.55188 388.664785,90.9165388" id="Fill-3-Copy-7" fill="#6FC17A" filter="url(#filter-1)"></path>
                <path d="M99.3389091,239.024657 C99.0117701,239.051575 98.5871436,239.102129 98.2920642,239.182227 C97.8691825,239.296685 97.5516395,239.647279 97.1405348,239.602415 C96.9922318,239.922589 96.5774195,239.847524 96.3554011,240.337743 C96.176347,240.137279 96.5636796,240.058712 96.6171123,239.917555 C96.1874697,240.31542 95.7549919,240.409525 95.6749519,240.915501 C95.4895731,240.909811 95.7861792,240.741955 95.6226096,240.75793 C95.5371173,240.987283 95.2426922,241.006979 95.3085562,241.388212 C94.8967972,241.296077 94.9050847,242.016961 94.5757647,242.176063 C94.4466538,242.910078 94.0569222,243.338582 94.209369,244.066907 C94.1339089,244.055089 94.1912673,243.910212 94.1046845,243.909336 C93.9805898,244.082883 94.1478668,244.310484 94.0523422,244.434571 C94.0348948,244.434571 94.0174474,244.434571 94,244.434571 C94,244.714696 94,244.994821 94,245.274946 C94.4673726,248.535776 96.3218148,250.470608 99.6529626,251 C99.9495687,251 100.246175,251 100.542781,251 C102.35295,250.875913 104.005657,249.691072 105.044432,248.321305 C107.63232,244.178081 104.709224,238.582585 99.3389091,239.024657 Z" id="Shape" fill="#606EEA" filter="url(#filter-2)"></path>
            </g>
        </g>
    </g>
</svg>