<?xml version="1.0" encoding="UTF-8"?>
<svg width="440px" height="362px" viewBox="0 0 440 362" version="1.1" xmlns="http://www.w3.org/2000/svg" xmlns:xlink="http://www.w3.org/1999/xlink">
    <title>Group 24</title>
    <defs>
        <filter x="-100.0%" y="-18.0%" width="300.0%" height="136.0%" filterUnits="objectBoundingBox" id="filter-1">
            <feGaussianBlur stdDeviation="15" in="SourceGraphic"></feGaussianBlur>
        </filter>
    </defs>
    <g id="Home" stroke="none" stroke-width="1" fill="none" fill-rule="evenodd">
        <g transform="translate(143.000000, -723.000000)" id="Group-24">
            <g transform="translate(-82.000000, 784.000000)">
                <path d="M60,-5 C84.8536229,-5 105,44.7786537 105,106.184786 C105,110.972431 104.879825,115.688654 104.639474,120.31441 L104.669,119.685 L105,119.68559 L105,245 C80.1463771,245 60,195.221346 60,133.815214 C60,129.027569 60.1201754,124.311346 60.3605261,119.68559 L60.33,120.314 L60,120.31441 Z" id="Fill-5-Copy-5" fill="#E2A834" filter="url(#filter-1)" transform="translate(82.500000, 120.000000) rotate(210.000000) translate(-82.500000, -120.000000) "></path>
                <path d="M362,234 C364.982435,234 367.4,239.973438 367.4,247.342174 C367.4,247.916692 367.385579,248.482638 367.356737,249.037729 L367.359,248.962 L367.4,248.962271 L367.4,264 C364.417565,264 362,258.026562 362,250.657826 C362,250.083308 362.014421,249.517362 362.043263,248.962271 L362.04,249.037 L362,249.037729 Z" id="Fill-5-Copy-3" fill="#D88B8B" transform="translate(364.700000, 249.000000) rotate(126.000000) translate(-364.700000, -249.000000) "></path>
                <path d="M274.626176,132.367418 C274.311086,133.112404 273.877331,133.762843 273.323367,134.318158 C272.769404,134.873858 272.121473,135.309542 271.378609,135.624825 C270.635746,135.94088 269.849083,136.098328 269.018813,136.098328 C268.187964,136.098328 267.400722,135.94088 266.658437,135.624825 C265.915574,135.309542 265.267643,134.873858 264.713679,134.318158 C264.159909,133.762843 263.7194,133.112404 263.391962,132.367418 C263.064909,131.622818 262.901479,130.833261 262.901479,129.999904 C262.901479,129.166739 263.064909,128.377567 263.391962,127.632582 C263.7194,126.887982 264.159909,126.237543 264.713679,125.681842 C265.267643,125.126721 265.915574,124.691036 266.658437,124.374982 C267.400722,124.059506 268.187964,123.901672 269.018813,123.901672 C269.849083,123.901672 270.635746,124.059506 271.378609,124.374982 C272.121473,124.691036 272.769404,125.126721 273.323367,125.681842 C273.877331,126.237543 274.311086,126.887982 274.626176,127.632582 C274.94088,128.377567 275.098328,129.166739 275.098328,129.999904 C275.098328,130.833261 274.94088,131.622818 274.626176,132.367418 M276.083152,122.916655 C275.174158,122.00766 274.113504,121.294511 272.901575,120.77663 C271.689261,120.259327 270.388382,120 268.999904,120 C267.610846,120 266.310546,120.259327 265.098425,120.77663 C263.886303,121.294511 262.825842,122.00766 261.916655,122.916655 C261.00766,123.825649 260.29374,124.886496 259.77663,126.098425 C259.258555,127.310546 259,128.611425 259,129.999904 C259,131.388961 259.258555,132.689261 259.77663,133.901382 C260.29374,135.113504 261.00766,136.174158 261.916655,137.083152 C262.825842,137.992147 263.886303,138.70626 265.098425,139.22337 C266.310546,139.741059 267.610846,140 268.999904,140 C270.388382,140 271.689261,139.741059 272.901575,139.22337 C274.113504,138.70626 275.174158,137.992147 276.083152,137.083152 C276.99234,136.174158 277.705489,135.113504 278.22337,133.901382 C278.74048,132.689261 279,131.388961 279,129.999904 C279,128.611425 278.74048,127.310546 278.22337,126.098425 C277.705489,124.886496 276.99234,123.825649 276.083152,122.916655" id="Fill-3-Copy-5" fill="#8576E1"></path>
            </g>
        </g>
    </g>
</svg>